<?xml version="1.0" encoding="utf-8"?>
<!-- Generator: Adobe Illustrator 26.0.0, SVG Export Plug-In . SVG Version: 6.00 Build 0)  -->
<svg version="1.1" id="Layer_1" xmlns="http://www.w3.org/2000/svg" xmlns:xlink="http://www.w3.org/1999/xlink" x="0px" y="0px"
	 viewBox="0 0 186.4 25.2" style="enable-background:new 0 0 186.4 25.2;" xml:space="preserve">
<style type="text/css">
	.st0{opacity:0.6;fill:#060707;enable-background:new    ;}
	.st1{fill:#8D8C8D;}
	.st2{fill:#FFFFFF;}
	.st3{opacity:0.7;fill:#4A494A;enable-background:new    ;}
</style>
<path class="st0" d="M173.8,25.1H12.7c-6.9,0-12.6-5.6-12.6-12.6l0,0C0.2,5.6,5.8,0,12.7,0h161.1c6.9,0,12.6,5.6,12.6,12.6l0,0
	C186.4,19.5,180.7,25.1,173.8,25.1z"/>
<circle class="st1" cx="19.3" cy="12.6" r="4.9"/>
<circle class="st1" cx="43.2" cy="12.6" r="4.9"/>
<circle class="st1" cx="67.1" cy="12.6" r="4.9"/>
<circle class="st2" cx="91.3" cy="12.6" r="4.9"/>
<circle class="st1" cx="115.4" cy="12.6" r="4.9"/>
<circle class="st1" cx="139.3" cy="12.6" r="4.9"/>
<circle class="st3" cx="173.8" cy="12.6" r="12.6"/>
<rect x="504.4" y="189.4" class="st2" width="6.7" height="24.5"/>
<rect x="521.4" y="189.4" class="st2" width="6.7" height="24.5"/>
</svg>
