<?xml version="1.0" encoding="utf-8"?>
<!-- Generator: Adobe Illustrator 26.0.0, SVG Export Plug-In . SVG Version: 6.00 Build 0)  -->
<svg version="1.1" id="Layer_1" xmlns="http://www.w3.org/2000/svg" xmlns:xlink="http://www.w3.org/1999/xlink" x="0px" y="0px"
	 viewBox="0 0 93.9 94" style="enable-background:new 0 0 93.9 94;" xml:space="preserve">
<style type="text/css">
	.st0{fill:none;stroke:#000000;stroke-miterlimit:10;}
	.st1{stroke:#000000;stroke-miterlimit:10;}
</style>
<g>
	<circle class="st0" cx="46.9" cy="47.1" r="46.5"/>
	<path class="st1" d="M65.5,89.7l-7.4,2.5l-11.1,1.4l-9.6-1l-9.8-3.2c-5.5-3-6.8-3.8-10.2-6.4c-2.5-1.9-4.8-4.6-7.6-8l8.4-17.6
		c3.2-6.1,6.9-12.1,13.5-12.1h30.7c6.6,0,11.7,4.8,14.5,11l7.4,18.7C76,83,75.9,83.4,65.5,89.7z"/>
	<ellipse transform="matrix(0.1602 -0.9871 0.9871 0.1602 13.9838 67.976)" class="st1" cx="46.9" cy="25.8" rx="18.2" ry="18.2"/>
</g>
</svg>
